<svg class="railroad-diagram" width="630" height="118" viewBox="0 0 630 118">
<g transform="translate(.5 .5)">
<path d="M 20 38 v 20 m 10 -20 v 20 m -10 -10 h 20.5"></path>
<path d="M40 48h10"></path>
<g>
<path d="M50 48h0"></path>
<path d="M580 48h0"></path>
<path d="M50 48h10"></path>
<g>
<path d="M60 48h0"></path>
<path d="M570 48h0"></path>
<path d="M60 48a10 10 0 0 0 10 -10v-8a10 10 0 0 1 10 -10"></path>
<g>
<path d="M80 20h470"></path>
</g>
<path d="M550 20a10 10 0 0 1 10 10v8a10 10 0 0 0 10 10"></path>
<path d="M60 48h20"></path>
<g>
<path d="M80 48h0"></path>
<path d="M550 48h0"></path>
<g>
<path d="M80 48h0"></path>
<path d="M360 48h0"></path>
<path d="M80 48a10 10 0 0 0 10 -10v0a10 10 0 0 1 10 -10"></path>
<g>
<path d="M100 28h240"></path>
</g>
<path d="M340 28a10 10 0 0 1 10 10v0a10 10 0 0 0 10 10"></path>
<path d="M80 48h20"></path>
<g>
<path d="M100 48h0"></path>
<path d="M340 48h0"></path>
<path d="M100 48h10"></path>
<g>
<path d="M110 48h0"></path>
<path d="M330 48h0"></path>
<g class="non-terminal">
<path d="M110 48h0"></path>
<path d="M210 48h0"></path>
<rect x="110" y="37" width="100" height="22"></rect>
<text x="160" y="52">Key String</text>
</g>
<path d="M210 48h10"></path>
<path d="M220 48h10"></path>
<g class="terminal">
<path d="M230 48h0"></path>
<path d="M330 48h0"></path>
<rect x="230" y="37" width="100" height="22" rx="10" ry="10"></rect>
<text x="280" y="52">WHITESPACE</text>
</g>
</g>
<path d="M330 48h10"></path>
<path d="M110 48a10 10 0 0 0 -10 10v0a10 10 0 0 0 10 10"></path>
<g>
<path d="M110 68h220"></path>
</g>
<path d="M330 68a10 10 0 0 0 10 -10v0a10 10 0 0 0 -10 -10"></path>
</g>
<path d="M340 48h20"></path>
</g>
<path d="M360 48h10"></path>
<g class="non-terminal">
<path d="M370 48h0"></path>
<path d="M550 48h0"></path>
<rect x="370" y="37" width="180" height="22"></rect>
<text x="460" y="52">Value SingleLineJSON</text>
</g>
</g>
<path d="M550 48h20"></path>
</g>
<path d="M570 48h10"></path>
<path d="M60 48a10 10 0 0 0 -10 10v19a10 10 0 0 0 10 10"></path>
<g class="terminal">
<path d="M60 87h217"></path>
<path d="M353 87h217"></path>
<rect x="277" y="76" width="76" height="22" rx="10" ry="10"></rect>
<text x="315" y="91">NEWLINE</text>
</g>
<path d="M570 87a10 10 0 0 0 10 -10v-19a10 10 0 0 0 -10 -10"></path>
</g>
<path d="M580 48h10"></path>
<path d="M 590 48 h 20 m -10 -10 v 20 m 10 -20 v 20"></path>
</g>
</svg>

