<svg class="railroad-diagram" width="790" height="118" viewBox="0 0 790 118">
<g transform="translate(.5 .5)">
<path d="M 20 38 v 20 m 10 -20 v 20 m -10 -10 h 20.5"></path>
<path d="M40 48h10"></path>
<g>
<path d="M50 48h0"></path>
<path d="M740 48h0"></path>
<path d="M50 48h10"></path>
<g>
<path d="M60 48h0"></path>
<path d="M730 48h0"></path>
<path d="M60 48a10 10 0 0 0 10 -10v-8a10 10 0 0 1 10 -10"></path>
<g>
<path d="M80 20h630"></path>
</g>
<path d="M710 20a10 10 0 0 1 10 10v8a10 10 0 0 0 10 10"></path>
<path d="M60 48h20"></path>
<g>
<path d="M80 48h0"></path>
<path d="M710 48h0"></path>
<g>
<path d="M80 48h0"></path>
<path d="M240 48h0"></path>
<path d="M80 48a10 10 0 0 0 10 -10v0a10 10 0 0 1 10 -10"></path>
<g>
<path d="M100 28h120"></path>
</g>
<path d="M220 28a10 10 0 0 1 10 10v0a10 10 0 0 0 10 10"></path>
<path d="M80 48h20"></path>
<g>
<path d="M100 48h0"></path>
<path d="M220 48h0"></path>
<path d="M100 48h10"></path>
<g class="terminal">
<path d="M110 48h0"></path>
<path d="M210 48h0"></path>
<rect x="110" y="37" width="100" height="22" rx="10" ry="10"></rect>
<text x="160" y="52">WHITESPACE</text>
</g>
<path d="M210 48h10"></path>
<path d="M110 48a10 10 0 0 0 -10 10v0a10 10 0 0 0 10 10"></path>
<g>
<path d="M110 68h100"></path>
</g>
<path d="M210 68a10 10 0 0 0 10 -10v0a10 10 0 0 0 -10 -10"></path>
</g>
<path d="M220 48h20"></path>
</g>
<path d="M240 48h10"></path>
<g class="non-terminal">
<path d="M250 48h0"></path>
<path d="M350 48h0"></path>
<rect x="250" y="37" width="100" height="22"></rect>
<text x="300" y="52">Key String</text>
</g>
<path d="M350 48h10"></path>
<g>
<path d="M360 48h0"></path>
<path d="M520 48h0"></path>
<path d="M360 48a10 10 0 0 0 10 -10v0a10 10 0 0 1 10 -10"></path>
<g>
<path d="M380 28h120"></path>
</g>
<path d="M500 28a10 10 0 0 1 10 10v0a10 10 0 0 0 10 10"></path>
<path d="M360 48h20"></path>
<g>
<path d="M380 48h0"></path>
<path d="M500 48h0"></path>
<path d="M380 48h10"></path>
<g class="terminal">
<path d="M390 48h0"></path>
<path d="M490 48h0"></path>
<rect x="390" y="37" width="100" height="22" rx="10" ry="10"></rect>
<text x="440" y="52">WHITESPACE</text>
</g>
<path d="M490 48h10"></path>
<path d="M390 48a10 10 0 0 0 -10 10v0a10 10 0 0 0 10 10"></path>
<g>
<path d="M390 68h100"></path>
</g>
<path d="M490 68a10 10 0 0 0 10 -10v0a10 10 0 0 0 -10 -10"></path>
</g>
<path d="M500 48h20"></path>
</g>
<path d="M520 48h10"></path>
<g class="non-terminal">
<path d="M530 48h0"></path>
<path d="M710 48h0"></path>
<rect x="530" y="37" width="180" height="22"></rect>
<text x="620" y="52">Value SingleLineJSON</text>
</g>
</g>
<path d="M710 48h20"></path>
</g>
<path d="M730 48h10"></path>
<path d="M60 48a10 10 0 0 0 -10 10v19a10 10 0 0 0 10 10"></path>
<g class="terminal">
<path d="M60 87h297"></path>
<path d="M433 87h297"></path>
<rect x="357" y="76" width="76" height="22" rx="10" ry="10"></rect>
<text x="395" y="91">NEWLINE</text>
</g>
<path d="M730 87a10 10 0 0 0 10 -10v-19a10 10 0 0 0 -10 -10"></path>
</g>
<path d="M740 48h10"></path>
<path d="M 750 48 h 20 m -10 -10 v 20 m 10 -20 v 20"></path>
</g>
</svg>

